<mxfile host="app.diagrams.net" modified="2025-10-09T19:19:32.946207Z" agent="python" version="22.0.0"><diagram id="1760037572946235" name="Use Case — Create Module &amp; Add Notes"><mxGraphModel dx="1200" dy="800" grid="1" gridSize="10" guides="1" tooltips="1" connect="1" arrows="1" fold="1" page="1" pageScale="1" pageWidth="2200" pageHeight="1400" math="0" shadow="0"><root><mxCell id="0" /><mxCell id="1" parent="0" /><mxCell id="sys2" value="AI Study Buddy" style="swimlane;rounded=1;horizontal=0;align=center;verticalAlign=top;startSize=28;collapsible=0;" vertex="1" parent="1"><mxGeometry x="360" y="80" width="1400" height="1000" as="geometry" /></mxCell><mxCell id="a_student2" value="Student" style="shape=umlActor;verticalLabelPosition=bottom;verticalAlign=top;" vertex="1" parent="1"><mxGeometry x="160" y="240" width="60" height="120" as="geometry" /></mxCell><mxCell id="a_storage2" value="Object Storage" style="shape=umlActor;verticalLabelPosition=bottom;verticalAlign=top;" vertex="1" parent="1"><mxGeometry x="160" y="720" width="60" height="120" as="geometry" /></mxCell><mxCell id="uc_create_module" value="Create Module" style="ellipse;whiteSpace=wrap;html=1;" vertex="1" parent="sys2"><mxGeometry x="460" y="200" width="220" height="80" as="geometry" /></mxCell><mxCell id="uc_add_note" value="Add Note (text/PDF/image/audio/video)" style="ellipse;whiteSpace=wrap;html=1;" vertex="1" parent="sys2"><mxGeometry x="800" y="200" width="360" height="80" as="geometry" /></mxCell><mxCell id="uc_upload" value="Upload File" style="ellipse;whiteSpace=wrap;html=1;" vertex="1" parent="sys2"><mxGeometry x="800" y="360" width="220" height="80" as="geometry" /></mxCell><mxCell id="uc_process" value="Process Note (OCR/ASR)" style="ellipse;whiteSpace=wrap;html=1;" vertex="1" parent="sys2"><mxGeometry x="1120" y="360" width="280" height="80" as="geometry" /></mxCell><mxCell id="uc_embed" value="Generate Embeddings" style="ellipse;whiteSpace=wrap;html=1;" vertex="1" parent="sys2"><mxGeometry x="1120" y="520" width="220" height="80" as="geometry" /></mxCell><mxCell id="uc_tag" value="Tag/Organise Note" style="ellipse;whiteSpace=wrap;html=1;" vertex="1" parent="sys2"><mxGeometry x="460" y="360" width="220" height="80" as="geometry" /></mxCell><mxCell id="e21" value="" style="endArrow=classic;" edge="1" parent="1" source="a_student2" target="uc_create_module"><mxGeometry relative="1" as="geometry" /></mxCell><mxCell id="e22" value="" style="endArrow=classic;" edge="1" parent="1" source="a_student2" target="uc_add_note"><mxGeometry relative="1" as="geometry" /></mxCell><mxCell id="e23" value="" style="endArrow=block;dashed=1;" edge="1" parent="1" source="uc_add_note" target="uc_upload"><mxGeometry relative="1" as="geometry" /></mxCell><mxCell id="e24" value="" style="endArrow=block;dashed=1;" edge="1" parent="1" source="uc_upload" target="uc_process"><mxGeometry relative="1" as="geometry" /></mxCell><mxCell id="e25" value="" style="endArrow=block;dashed=1;" edge="1" parent="1" source="uc_process" target="uc_embed"><mxGeometry relative="1" as="geometry" /></mxCell><mxCell id="e26" value="" style="endArrow=classic;" edge="1" parent="1" source="a_student2" target="uc_tag"><mxGeometry relative="1" as="geometry" /></mxCell><mxCell id="e27" value="" style="endArrow=classic;" edge="1" parent="1" source="a_storage2" target="uc_upload"><mxGeometry relative="1" as="geometry" /></mxCell></root></mxGraphModel></diagram></mxfile>